<svg width="111" height="111" viewBox="0 0 111 111" fill="none" xmlns="http://www.w3.org/2000/svg">
<g clip-path="url(#clip0_39:59)">
<path d="M81.6082 74.717C84.3825 63.565 83.906 51.8519 80.2351 40.9621C76.5642 30.0723 69.8523 20.4611 60.8928 13.2646C69.0741 8.56062 78.35 6.09448 87.7872 6.11436C91.3669 6.11436 94.9328 6.46123 98.4432 7.15961L99.9232 1.23036C95.9281 0.412497 91.8605 0.000321049 87.7825 0.000109654C76.3453 -0.0217885 65.1417 3.23658 55.5 9.38886C45.8594 3.23814 34.6577 -0.0201266 23.2222 0.000109654C19.1429 0.000109654 15.0775 0.411735 11.0815 1.23036L12.5569 7.15961C16.0692 6.46304 19.6414 6.11295 23.2222 6.11436C32.661 6.09504 41.939 8.55769 50.1258 13.2554C42.8032 19.135 36.9585 26.6469 33.0593 35.1901C29.1601 43.7333 27.3147 53.0706 27.6707 62.4548C28.0267 71.839 30.5742 81.0096 35.1095 89.2328C39.6448 97.456 46.0418 104.504 53.7888 109.811L55.5232 111L57.2483 109.811C69.3843 101.482 78.0608 88.999 81.6221 74.717H81.6082ZM52.4475 101.079C44.47 94.1903 38.6808 85.119 35.7924 74.9821C32.904 64.8451 33.0424 54.0848 36.1907 44.0255C39.2768 49.1518 43.1063 53.7918 47.5543 57.7941C49.0974 59.1852 50.3305 60.8854 51.1735 62.7842C52.0165 64.683 52.4506 66.7379 52.4475 68.8155V101.079ZM55.5047 56.4159C51.4064 53.3749 47.7583 49.7704 44.6683 45.709C42.6893 43.1083 41.6177 39.9305 41.6177 36.6625C41.6177 33.3945 42.6893 30.2166 44.6683 27.616C47.7557 23.5219 51.4107 19.8887 55.5232 16.8259C59.6857 19.9292 63.3718 23.6154 66.4844 27.7686C68.3992 30.3262 69.434 33.4352 69.434 36.6301C69.434 39.825 68.3992 42.934 66.4844 45.4916C63.3617 49.6358 59.6647 53.3142 55.5047 56.4159V56.4159ZM58.5525 101.079V68.8155C58.5506 66.7372 58.9862 64.6819 59.8308 62.783C60.6754 60.8842 61.9103 59.1844 63.4551 57.7941C67.9024 53.7937 71.7292 49.1533 74.8094 44.0255C77.9535 54.0852 78.0898 64.8442 75.2016 74.9803C72.3134 85.1164 66.5267 94.1878 58.5525 101.079V101.079Z" fill="white"/>
</g>
<defs>
<clipPath id="clip0_39:59">
<rect width="111" height="111" fill="white"/>
</clipPath>
</defs>
</svg>
