<svg width="81" height="81" viewBox="0 0 81 81" fill="none" xmlns="http://www.w3.org/2000/svg">
<path d="M13.3246 44.9483C13.0225 45.7732 12.4106 46.4477 11.6189 46.8287C10.8273 47.2096 9.91837 47.2668 9.08521 46.9882C8.25206 46.7096 7.56036 46.1172 7.1571 45.3367C6.75384 44.5562 6.6708 43.6492 6.92562 42.8085C6.85812 43.011 6.92562 42.8018 6.92562 42.8018C7.04598 42.4302 7.18567 42.0652 7.34412 41.7083C7.61412 41.067 8.01237 40.1828 8.55912 39.1365C9.66612 37.044 11.4076 34.2563 13.9591 31.4685C19.1364 25.8323 27.5941 20.25 40.5001 20.25C53.4129 20.25 61.8706 25.8323 67.0344 31.4685C69.7912 34.4919 72.0266 37.9522 73.6494 41.7083C73.7844 42.0255 73.8856 42.282 73.9531 42.471C73.9801 42.525 74.0476 42.876 74.1151 43.2135C74.1759 43.524 74.2299 43.821 74.2501 43.875C74.2501 43.875 74.8171 46.1228 71.9416 47.0745C71.0948 47.3573 70.1704 47.293 69.3709 46.8958C68.5713 46.4986 67.9618 45.8007 67.6756 44.955V44.9348L67.6284 44.8268C67.2893 43.9596 66.9017 43.1123 66.4674 42.2888C65.2693 40.0246 63.7881 37.922 62.0596 36.0315C57.9421 31.5427 51.2124 27 40.5001 27C29.7879 27 23.0581 31.5427 18.9406 36.0315C16.7114 38.4755 14.8985 41.2689 13.5744 44.3003C13.5035 44.4744 13.436 44.65 13.3719 44.8268L13.3246 44.9483V44.9483Z" fill="#FFF5F5"/>
<path d="M27 47.25C27 43.6696 28.4223 40.2358 30.9541 37.7041C33.4858 35.1723 36.9196 33.75 40.5 33.75C44.0804 33.75 47.5142 35.1723 50.0459 37.7041C52.5777 40.2358 54 43.6696 54 47.25C54 50.8304 52.5777 54.2642 50.0459 56.7959C47.5142 59.3277 44.0804 60.75 40.5 60.75C36.9196 60.75 33.4858 59.3277 30.9541 56.7959C28.4223 54.2642 27 50.8304 27 47.25V47.25Z" fill="#FFF5F5"/>
</svg>
