<svg width="100%" height="100%" viewBox="0 0 1152 720" fill="none" xmlns="http://www.w3.org/2000/svg">
	<g clip-path="url(#clip0_6:27)">
		<path d="M0 447.6L24.064 450C48.256 452.4 96.384 457.2 144.384 455.4C192.384 453.6 240.256 445.2 288.256 452.4C336.256 459.6 384.384 482.4 432.384 482.64C480.384 482.76 528.256 460.44 576.256 448.8C624.256 437.16 672.384 436.44 720.384 432.24C768.384 428.04 816.256 420.36 864.256 422.04C912.256 423.6 960.384 434.4 1008.38 445.2C1056.38 456 1104.26 466.8 1128.06 472.2L1152 477.6V721.2H1128.06C1104.26 721.2 1056.38 721.2 1008.38 721.2C960.384 721.2 912.256 721.2 864.256 721.2C816.256 721.2 768.384 721.2 720.384 721.2C672.384 721.2 624.256 721.2 576.256 721.2C528.256 721.2 480.384 721.2 432.384 721.2C384.384 721.2 336.256 721.2 288.256 721.2C240.256 721.2 192.384 721.2 144.384 721.2C96.384 721.2 48.256 721.2 24.064 721.2H0V447.6Z" fill="#69ABFA" />
		<path d="M0 468L24.064 467.76C48.256 467.64 96.384 467.16 144.384 474.96C192.384 482.76 240.256 498.84 288.256 505.44C336.256 512.04 384.384 509.16 432.384 510.24C480.384 511.2 528.256 516 576.256 520.8C624.256 525.6 672.384 530.4 720.384 521.4C768.384 512.4 816.256 489.6 864.256 476.16C912.256 462.84 960.384 458.76 1008.38 462.6C1056.38 466.44 1104.26 477.96 1128.06 483.84L1152 489.6V721.2H1128.06C1104.26 721.2 1056.38 721.2 1008.38 721.2C960.384 721.2 912.256 721.2 864.256 721.2C816.256 721.2 768.384 721.2 720.384 721.2C672.384 721.2 624.256 721.2 576.256 721.2C528.256 721.2 480.384 721.2 432.384 721.2C384.384 721.2 336.256 721.2 288.256 721.2C240.256 721.2 192.384 721.2 144.384 721.2C96.384 721.2 48.256 721.2 24.064 721.2H0V468Z" fill="#488EF4" />
		<path d="M0 602.4L24.064 594.96C48.256 587.64 96.384 572.76 144.384 563.16C192.384 553.56 240.256 549.24 288.256 549.96C336.256 550.8 384.384 556.8 432.384 552.6C480.384 548.4 528.256 534 576.256 526.8C624.256 519.6 672.384 519.6 720.384 522.96C768.384 526.44 816.256 533.16 864.256 536.16C912.256 539.16 960.384 538.44 1008.38 545.64C1056.38 552.84 1104.26 567.96 1128.06 575.64L1152 583.2V721.2H1128.06C1104.26 721.2 1056.38 721.2 1008.38 721.2C960.384 721.2 912.256 721.2 864.256 721.2C816.256 721.2 768.384 721.2 720.384 721.2C672.384 721.2 624.256 721.2 576.256 721.2C528.256 721.2 480.384 721.2 432.384 721.2C384.384 721.2 336.256 721.2 288.256 721.2C240.256 721.2 192.384 721.2 144.384 721.2C96.384 721.2 48.256 721.2 24.064 721.2H0V602.4Z" fill="#3570EA" />
		<path d="M0 637.2L24.064 636.24C48.256 635.16 96.384 633.24 144.384 634.56C192.384 636 240.256 640.8 288.256 639.36C336.256 638.04 384.384 630.36 432.384 619.2C480.384 608.04 528.256 593.16 576.256 586.44C624.256 579.6 672.384 580.8 720.384 588C768.384 595.2 816.256 608.4 864.256 606.96C912.256 605.64 960.384 589.56 1008.38 580.56C1056.38 571.56 1104.26 569.64 1128.06 568.56L1152 567.6V721.2H1128.06C1104.26 721.2 1056.38 721.2 1008.38 721.2C960.384 721.2 912.256 721.2 864.256 721.2C816.256 721.2 768.384 721.2 720.384 721.2C672.384 721.2 624.256 721.2 576.256 721.2C528.256 721.2 480.384 721.2 432.384 721.2C384.384 721.2 336.256 721.2 288.256 721.2C240.256 721.2 192.384 721.2 144.384 721.2C96.384 721.2 48.256 721.2 24.064 721.2H0V637.2Z" fill="#374FDB" />
		<path d="M0 674.4L24.064 671.16C48.256 668.04 96.384 661.56 144.384 654C192.384 646.44 240.256 637.56 288.256 640.8C336.256 644.04 384.384 659.16 432.384 665.4C480.384 671.64 528.256 668.76 576.256 663C624.256 657.24 672.384 648.36 720.384 647.16C768.384 645.96 816.256 652.44 864.256 656.64C912.256 660.84 960.384 662.76 1008.38 663.84C1056.38 664.8 1104.26 664.8 1128.06 664.8H1152V721.2H1128.06C1104.26 721.2 1056.38 721.2 1008.38 721.2C960.384 721.2 912.256 721.2 864.256 721.2C816.256 721.2 768.384 721.2 720.384 721.2C672.384 721.2 624.256 721.2 576.256 721.2C528.256 721.2 480.384 721.2 432.384 721.2C384.384 721.2 336.256 721.2 288.256 721.2C240.256 721.2 192.384 721.2 144.384 721.2C96.384 721.2 48.256 721.2 24.064 721.2H0V674.4Z" fill="#4624C7" />
	</g>
	<defs>
		<clipPath id="clip0_6:27">
			<rect width="1152" height="720" fill="white" />
		</clipPath>
	</defs>
</svg>
