<svg width="80" height="80" viewBox="0 0 80 80" fill="none" xmlns="http://www.w3.org/2000/svg">
<path d="M40.8 9.87993C40.4296 9.88006 40.064 9.9627 39.7295 10.1218C39.3951 10.281 39.1003 10.5126 38.8666 10.7999L38.6733 10.9433C35.0488 9.84015 31.1933 9.73894 27.5159 10.6504C23.8385 11.5618 20.4765 13.4518 17.7866 16.1199C15.4025 18.4809 13.6296 21.3872 12.6213 24.5874C11.6131 27.7877 11.3998 31.1854 12 34.4866L11.95 34.5366L8.75665 37.7066C8.09723 38.3599 7.57378 39.1374 7.21656 39.9942C6.85934 40.8509 6.67542 41.77 6.67542 42.6983C6.67542 43.6265 6.85934 44.5456 7.21656 45.4023C7.57378 46.2591 8.09723 47.0366 8.75665 47.6899C9.53223 48.4602 10.4748 49.0416 11.5112 49.389C12.5476 49.7364 13.6502 49.8405 14.7333 49.6933C15.1196 51.0987 15.9292 52.3511 17.0522 53.2803C18.1752 54.2094 19.5571 54.7703 21.01 54.8866C21.1593 56.5958 21.9226 58.1932 23.1586 59.3832C24.3945 60.5732 26.0196 61.2754 27.7333 61.3599C27.82 63.0499 28.51 64.7099 29.8066 65.9966C32.34 68.5166 36.3133 68.7333 39.0966 66.6533L40.3866 67.9332C41.7293 69.2637 43.5431 70.0101 45.4333 70.0101C47.3235 70.0101 49.1373 69.2637 50.48 67.9332C51.7133 66.7066 52.4033 65.1399 52.5466 63.5399C54.21 63.399 55.7704 62.676 56.9532 61.498C58.136 60.3201 58.8655 58.7627 59.0133 57.0999C60.4785 56.9653 61.8656 56.3783 62.9824 55.4204C64.0992 54.4624 64.8905 53.1809 65.2466 51.7533C66.3136 51.8811 67.3956 51.7658 68.4116 51.4159C69.4276 51.0661 70.3512 50.4908 71.1133 49.7333C71.7722 49.08 72.2952 48.3027 72.6522 47.4462C73.0091 46.5898 73.1929 45.6711 73.1929 44.7433C73.1929 43.8154 73.0091 42.8967 72.6522 42.0403C72.2952 41.1838 71.7722 40.4065 71.1133 39.7533L68.3366 36.9899L68.91 34.7699C70.1503 29.9388 69.5255 24.8177 67.16 20.4266C65.4388 17.2387 62.8867 14.5762 59.7746 12.7217C56.6624 10.8672 53.1062 9.8898 49.4833 9.89326H44.1266C43.8979 9.88327 43.6689 9.87882 43.44 9.87993H40.8033H40.8ZM50.55 26.3633L62.0966 37.8366L62.1066 37.8499L62.1533 37.8933L67.57 43.2766C67.7635 43.4687 67.9171 43.6972 68.0219 43.9489C68.1267 44.2006 68.1806 44.4706 68.1806 44.7433C68.1806 45.0159 68.1267 45.2859 68.0219 45.5376C67.9171 45.7893 67.7635 46.0178 67.57 46.2099C67.1768 46.5987 66.6462 46.8168 66.0933 46.8168C65.5404 46.8168 65.0098 46.5987 64.6166 46.2099L59.2 40.8266C58.7281 40.3592 58.0908 40.097 57.4266 40.097C56.7625 40.097 56.1252 40.3592 55.6533 40.8266L55.6 40.8833C55.3673 41.1138 55.1826 41.3882 55.0565 41.6906C54.9304 41.993 54.8655 42.3173 54.8655 42.6449C54.8655 42.9725 54.9304 43.2969 55.0565 43.5992C55.1826 43.9016 55.3673 44.176 55.6 44.4066L59.82 48.6033C60.0135 48.7954 60.1671 49.0238 60.2719 49.2756C60.3767 49.5273 60.4306 49.7973 60.4306 50.0699C60.4306 50.3426 60.3767 50.6126 60.2719 50.8643C60.1671 51.116 60.0135 51.3445 59.82 51.5366C59.464 51.8908 58.9929 52.1058 58.492 52.1425C57.9912 52.1792 57.4938 52.0352 57.09 51.7366C56.6051 51.3736 56.0057 51.1974 55.4015 51.2403C54.7973 51.2831 54.2288 51.5421 53.8 51.9699C53.3729 52.3968 53.1163 52.9649 53.0783 53.5675C53.0402 54.1702 53.2233 54.766 53.5933 55.2433C53.9008 55.6424 54.0519 56.1402 54.0181 56.6429C53.9844 57.1457 53.7681 57.6188 53.41 57.9733C53.0477 58.3323 52.5672 58.5472 52.058 58.5778C51.5489 58.6085 51.0461 58.4529 50.6433 58.1399C50.1614 57.764 49.5594 57.5761 48.9492 57.611C48.3391 57.646 47.7624 57.9015 47.3266 58.3299C46.8923 58.7573 46.6305 59.3295 46.5912 59.9376C46.5518 60.5456 46.7377 61.1468 47.1133 61.6266C47.4282 62.0319 47.5838 62.5385 47.5506 63.0507C47.5175 63.5629 47.2979 64.0453 46.9333 64.4066C46.5339 64.8015 45.995 65.023 45.4333 65.023C44.8717 65.023 44.3327 64.8015 43.9333 64.4066L42.6933 63.1766L43.0433 62.8266C43.7022 62.1733 44.2252 61.396 44.5822 60.5396C44.9391 59.6831 45.1229 58.7644 45.1229 57.8366C45.1229 56.9087 44.9391 55.9901 44.5822 55.1336C44.2252 54.2771 43.7022 53.4998 43.0433 52.8466C41.7967 51.6055 40.1337 50.8714 38.3766 50.7866C38.2815 49.074 37.5694 47.4539 36.372 46.2258C35.1746 44.9978 33.5729 44.2449 31.8633 44.1066C31.7268 42.4371 30.9973 40.8716 29.8066 39.6933C29.0311 38.9229 28.0885 38.3416 27.0521 37.9942C26.0156 37.6467 24.9131 37.5426 23.83 37.6899C23.4068 36.1557 22.4812 34.8078 21.2012 33.862C19.9212 32.9162 18.3608 32.4272 16.77 32.4733C16.5169 30.1287 16.7957 27.7572 17.5858 25.5353C18.3758 23.3135 19.6568 21.2983 21.3333 19.6399C22.8956 18.0879 24.7634 16.8775 26.8183 16.0857C28.8732 15.2938 31.0702 14.9377 33.27 15.0399L28.28 18.8166C27.4691 19.4303 26.7875 20.1983 26.2746 21.0764C25.7616 21.9545 25.4274 22.9254 25.2911 23.9332C25.1548 24.9409 25.2191 25.9657 25.4803 26.9486C25.7416 27.9314 26.1946 28.8528 26.8133 29.6599C28.0629 31.2888 29.9059 32.3575 31.9404 32.6329C33.9748 32.9083 36.0356 32.368 37.6733 31.1299L43.97 26.3599H50.55V26.3633ZM31.2966 22.8066L41.76 14.8799H43.44C43.6479 14.8784 43.8558 14.884 44.0633 14.8966H49.4833C52.2028 14.8929 54.8725 15.6254 57.2094 17.0162C59.5462 18.4071 61.4631 20.4045 62.7566 22.7966C64.4066 25.8633 64.9233 29.3899 64.2366 32.7799L53.5333 22.1266C53.3003 21.8854 53.0212 21.6935 52.7126 21.5623C52.4039 21.4312 52.072 21.3635 51.7366 21.3633H43.1333C42.5882 21.363 42.0579 21.5409 41.6233 21.8699L34.6566 27.1466C34.0724 27.5875 33.3377 27.7799 32.6123 27.6819C31.8869 27.5839 31.2296 27.2034 30.7833 26.6233C30.5653 26.3392 30.4057 26.0149 30.3137 25.6689C30.2217 25.3229 30.199 24.9621 30.247 24.6074C30.2951 24.2526 30.4128 23.9108 30.5935 23.6017C30.7743 23.2927 31.0143 23.0224 31.3 22.8066H31.2966ZM20.1166 49.3233C19.9231 49.1312 19.7696 48.9027 19.6648 48.6509C19.56 48.3992 19.506 48.1293 19.506 47.8566C19.506 47.5839 19.56 47.314 19.6648 47.0622C19.7696 46.8105 19.9231 46.582 20.1166 46.3899L23.3066 43.2166C23.6998 42.8278 24.2304 42.6097 24.7833 42.6097C25.3362 42.6097 25.8668 42.8278 26.26 43.2166C26.6462 43.6 26.8657 44.1202 26.8707 44.6644C26.8757 45.2086 26.6658 45.7329 26.2866 46.1233L26.26 46.1499L23.07 49.3199L23.04 49.3499C22.6447 49.7262 22.1186 49.9338 21.5729 49.9288C21.0273 49.9238 20.505 49.7066 20.1166 49.3233V49.3233ZM18.48 38.0933C18.8579 38.4834 19.0664 39.007 19.0601 39.5501C19.0539 40.0932 18.8334 40.6119 18.4466 40.9933L15.2566 44.1666C14.8635 44.5554 14.3329 44.7735 13.78 44.7735C13.2271 44.7735 12.6965 44.5554 12.3033 44.1666C12.1098 43.9745 11.9562 43.746 11.8514 43.4943C11.7466 43.2426 11.6927 42.9726 11.6927 42.6999C11.6927 42.4273 11.7466 42.1573 11.8514 41.9056C11.9562 41.6538 12.1098 41.4254 12.3033 41.2333L15.4966 38.0633C15.8898 37.6745 16.4204 37.4564 16.9733 37.4564C17.5262 37.4564 18.0568 37.6745 18.45 38.0633L18.48 38.0933V38.0933ZM36.3066 62.4733C35.9135 62.8621 35.3829 63.0801 34.83 63.0801C34.2771 63.0801 33.7464 62.8621 33.3533 62.4733C33.1598 62.2812 33.0062 62.0527 32.9014 61.8009C32.7966 61.5492 32.7427 61.2793 32.7427 61.0066C32.7427 60.7339 32.7966 60.464 32.9014 60.2122C33.0062 59.9605 33.1598 59.732 33.3533 59.5399L36.5433 56.3699C36.9364 55.9811 37.4671 55.7631 38.02 55.7631C38.5729 55.7631 39.1035 55.9811 39.4966 56.3699C39.6901 56.562 39.8437 56.7905 39.9485 57.0422C40.0533 57.294 40.1073 57.5639 40.1073 57.8366C40.1073 58.1093 40.0533 58.3792 39.9485 58.6309C39.8437 58.8827 39.6901 59.1112 39.4966 59.3033L36.3066 62.4733ZM29.57 55.7799C29.1773 56.1695 28.6465 56.3881 28.0933 56.3881C27.5401 56.3881 27.0094 56.1695 26.6166 55.7799C26.2299 55.397 26.0099 54.877 26.0043 54.3328C25.9986 53.7886 26.2079 53.2641 26.5866 52.8733L26.6166 52.8466L29.8066 49.6766L29.8333 49.6466C30.2291 49.2698 30.7563 49.0621 31.3027 49.0678C31.8492 49.0734 32.372 49.2918 32.76 49.6766C32.9535 49.8687 33.1071 50.0972 33.2119 50.3489C33.3167 50.6006 33.3706 50.8706 33.3706 51.1433C33.3706 51.4159 33.3167 51.6859 33.2119 51.9376C33.1071 52.1893 32.9535 52.4178 32.76 52.6099L29.57 55.7799V55.7799Z" fill="white"/>
</svg>
