<svg width="916" height="801" viewBox="0 0 916 801" fill="none" xmlns="http://www.w3.org/2000/svg">
	<g clip-path="url(#clip0_3:3)">
		<path d="M769.282 711.181L774.333 683.143C779.384 655.105 789.487 599.03 787.994 544.528C786.502 490.026 773.414 437.098 763.226 383.776C753.037 330.455 745.747 276.74 742.806 222.435C739.864 168.13 741.27 113.234 729.632 60.1094C717.994 6.9845 693.312 -44.3702 680.971 -70.0475L668.63 -95.7249L791.341 -112.378L797.885 -85.9143C804.428 -59.4502 817.516 -6.52195 823.356 47.3898C829.197 101.301 827.791 156.197 830.732 210.502C833.674 264.807 840.964 318.522 851.153 371.844C861.341 425.165 874.429 478.093 886.066 531.218C897.704 584.343 907.893 637.665 912.987 664.326L918.081 690.987L769.282 711.181Z" fill="#7C91FF" />
		<path d="M699.714 720.622L703.316 692.781C706.917 664.94 714.121 609.258 708.28 555.346C702.44 501.435 683.555 449.293 669.019 396.562C654.482 343.83 644.294 290.509 645.7 235.613C647.106 180.718 660.107 124.249 655.716 70.1409C651.324 16.0325 629.541 -35.7156 618.649 -61.5896L607.758 -87.4636L669.596 -95.856L681.937 -70.1786C694.278 -44.5013 718.96 6.85337 730.598 59.9783C742.236 113.103 740.83 167.998 743.772 222.304C746.714 276.609 754.004 330.324 764.192 383.645C774.381 436.967 787.468 489.895 788.96 544.397C790.453 598.899 780.351 654.974 775.3 683.012L770.248 711.05L699.714 720.622Z" fill="#AFBCFF" />
		<path d="M421.44 758.388L430.839 729.76C440.238 701.132 459.037 643.877 470.588 587.605C482.14 531.332 486.445 476.044 463.212 424.492C439.979 372.941 389.209 325.127 379.021 271.805C368.832 218.484 399.225 159.655 409.327 103.579C419.43 47.5038 409.241 -5.81779 404.147 -32.4786L399.052 -59.1394L608.724 -87.5948L619.616 -61.7207C630.507 -35.8467 652.291 15.9014 656.682 70.0098C661.073 124.118 648.072 180.587 646.666 235.482C645.26 290.377 655.448 343.699 669.985 396.431C684.521 449.162 703.406 501.304 709.247 555.215C715.087 609.127 707.884 664.809 704.282 692.65L700.68 720.491L421.44 758.388Z" fill="#AFBCFF" />
		<path d="M308.391 773.73L317.79 745.102C327.189 716.474 345.988 659.219 350.293 603.93C354.598 548.642 344.409 495.32 321.176 443.769C297.944 392.217 261.667 342.436 257.276 288.328C252.885 234.219 280.379 175.784 284.684 120.495C288.989 65.2065 270.104 13.065 260.662 -13.0057L251.219 -39.0764L400.019 -59.2706L405.113 -32.6097C410.207 -5.94892 420.396 47.3727 410.294 103.448C400.191 159.523 369.798 218.353 379.987 271.674C390.175 324.996 440.946 372.81 464.178 424.361C487.411 475.913 483.106 531.201 471.554 587.473C460.003 643.745 441.204 701.001 431.805 729.629L422.406 758.257L308.391 773.73Z" fill="#7C91FF" />
	</g>
	<defs>
		<clipPath id="clip0_3:3">
			<rect width="877.578" height="813.112" fill="white" transform="translate(0 -4.9825) rotate(-7.72861)" />
		</clipPath>
	</defs>
</svg>
