<svg width="85" height="85" viewBox="0 0 85 85" fill="none" xmlns="http://www.w3.org/2000/svg">
<path d="M23.9062 21.25C21.7928 21.25 19.7659 22.0896 18.2715 23.584C16.7771 25.0784 15.9375 27.1053 15.9375 29.2188V50.4688C15.9375 52.5822 16.7771 54.6091 18.2715 56.1035C19.7659 57.5979 21.7928 58.4375 23.9062 58.4375H61.0938C63.2072 58.4375 65.2341 57.5979 66.7285 56.1035C68.2229 54.6091 69.0625 52.5822 69.0625 50.4688V29.2188C69.0625 27.1053 68.2229 25.0784 66.7285 23.584C65.2341 22.0896 63.2072 21.25 61.0938 21.25H23.9062ZM21.25 29.2188C21.25 28.5143 21.5299 27.8386 22.028 27.3405C22.5261 26.8424 23.2018 26.5625 23.9062 26.5625H61.0938C61.7982 26.5625 62.4739 26.8424 62.972 27.3405C63.4701 27.8386 63.75 28.5143 63.75 29.2188V50.4688C63.75 51.1732 63.4701 51.8489 62.972 52.347C62.4739 52.8451 61.7982 53.125 61.0938 53.125H23.9062C23.2018 53.125 22.5261 52.8451 22.028 52.347C21.5299 51.8489 21.25 51.1732 21.25 50.4688V29.2188Z" fill="white"/>
<path d="M13.2812 63.75C12.5768 63.75 11.9011 64.0299 11.403 64.528C10.9049 65.0261 10.625 65.7018 10.625 66.4062C10.625 67.1107 10.9049 67.7864 11.403 68.2845C11.9011 68.7826 12.5768 69.0625 13.2812 69.0625H71.7188C72.4232 69.0625 73.0989 68.7826 73.597 68.2845C74.0951 67.7864 74.375 67.1107 74.375 66.4062C74.375 65.7018 74.0951 65.0261 73.597 64.528C73.0989 64.0299 72.4232 63.75 71.7188 63.75H13.2812Z" fill="white"/>
</svg>
