<svg width="102" height="102" viewBox="0 0 102 102" fill="none" xmlns="http://www.w3.org/2000/svg">
<g clip-path="url(#clip0_39:61)">
<path d="M47.6595 0.0259092C47.4385 0.0471592 46.7415 0.119409 46.1125 0.166159C31.6285 1.47516 18.0625 9.29091 9.4605 21.3057C4.71028 27.9005 1.62231 35.5446 0.459 43.5884C0.051 46.3934 0 47.2179 0 51.0174C0 54.8169 0.051 55.6457 0.459 58.4464C3.23 77.6012 16.864 93.6917 35.3473 99.6544C38.658 100.721 42.1473 101.448 46.1125 101.89C47.6595 102.06 54.3405 102.06 55.8875 101.89C62.7342 101.129 68.5397 99.4334 74.2602 96.5137C75.14 96.0674 75.31 95.9442 75.191 95.8464C75.106 95.7869 71.3703 90.7719 66.8823 84.7114L58.7265 73.6912L48.5095 58.5654C45.11 53.5062 41.6788 48.4685 38.216 43.4524C38.1777 43.4397 38.1395 50.1589 38.1182 58.3699C38.0885 72.7349 38.0757 73.3129 37.8972 73.6529C37.7231 74.0497 37.4125 74.3709 37.0218 74.5582C36.703 74.7197 36.4267 74.7494 34.918 74.7494H33.1925L32.7335 74.4604C32.4495 74.2811 32.219 74.0286 32.0663 73.7294L31.8537 73.2832L31.875 53.2912L31.9047 33.2907L32.215 32.8997C32.4239 32.6552 32.6742 32.4495 32.9545 32.2919C33.3625 32.0922 33.5197 32.0752 35.2495 32.0752C37.281 32.0752 37.621 32.1517 38.148 32.7297C38.2967 32.8912 43.8303 41.2297 50.4518 51.2682L70.5712 81.7492L78.6462 93.9807L79.0585 93.7129C82.9447 91.1293 86.468 88.0376 89.5347 84.5202C95.9614 77.1647 100.13 68.1116 101.541 58.4464C101.949 55.6414 102 54.8169 102 51.0174C102 47.2179 101.949 46.3934 101.541 43.5884C98.77 24.4379 85.136 8.34316 66.6527 2.38041C63.1983 1.28208 59.6412 0.537342 56.0363 0.157659C55.0758 0.0556592 48.4883 -0.0548408 47.6638 0.0301592L47.6595 0.0259092ZM68.5398 30.8809C68.7768 31.0003 68.9878 31.1654 69.1607 31.3667C69.3335 31.568 69.4648 31.8016 69.547 32.0539C69.6235 32.3089 69.6447 37.8552 69.6235 50.3502L69.5938 68.2767L66.436 63.4317L63.2655 58.5867V45.5562C63.2655 37.1284 63.3038 32.3939 63.3633 32.1644C63.434 31.8989 63.5579 31.6506 63.7273 31.4344C63.8968 31.2181 64.1084 31.0385 64.3492 30.9064C64.7615 30.6939 64.9102 30.6769 66.4742 30.6769C67.949 30.6769 68.2083 30.6982 68.5398 30.8767V30.8809Z" fill="white"/>
</g>
<defs>
<clipPath id="clip0_39:61">
<rect width="102" height="102" fill="white"/>
</clipPath>
</defs>
</svg>
