<svg width="132" height="88" viewBox="0 0 132 88" fill="none" xmlns="http://www.w3.org/2000/svg">
<path d="M49.218 26.2445V18.3167C49.9934 18.271 50.7648 18.2336 51.5403 18.2336C73.1092 17.5393 87.2451 36.9203 87.2451 36.9203C87.2451 36.9203 71.9955 58.2676 55.6198 58.2676C53.4612 58.268 51.3161 57.9257 49.2633 57.2532V33.1538C57.6616 34.189 59.361 37.9138 64.3645 46.3862L75.58 36.8787C75.58 36.8787 67.3963 26.0533 53.5821 26.0533C52.1262 26.0329 50.6704 26.0982 49.2221 26.2487L49.218 26.2445ZM49.218 0V11.8439L51.5403 11.715C81.5075 10.6716 101.105 36.4879 101.105 36.4879C101.105 36.4879 78.653 64.0045 55.2815 64.0045C53.2645 64.0045 51.2598 63.8091 49.2633 63.4683V70.8057C50.9174 71.0011 52.6127 71.1508 54.2668 71.1508C76.0296 71.1508 91.7825 59.9388 107.032 46.7063C109.544 48.7642 119.902 53.7237 122.047 55.8689C107.573 68.1243 73.7981 77.952 54.6587 77.952C52.8715 77.9577 51.0855 77.8633 49.3087 77.6693V88H132V0H49.218ZM49.218 57.2532V63.5098C29.0886 59.8889 23.4994 38.7827 23.4994 38.7827C23.4994 38.7827 33.1681 28.0197 49.218 26.2445V33.1081H49.1726C40.7537 32.0729 34.1581 40.0132 34.1581 40.0132C34.1581 40.0132 37.8993 53.3704 49.218 57.2532V57.2532ZM13.5131 37.893C13.5131 37.893 25.4133 20.1833 49.2633 18.3209V11.8481C22.8353 14.014 0 36.5295 0 36.5295C0 36.5295 12.9356 74.2271 49.218 77.6693V70.8057C22.6002 67.4675 13.5131 37.893 13.5131 37.893V37.893Z" fill="white"/>
</svg>
