<svg width="100" height="100" viewBox="0 0 100 100" fill="none" xmlns="http://www.w3.org/2000/svg">
<g clip-path="url(#clip0_39:66)">
<path d="M29.0324 15.8328C37.472 -0.0675867 60.0806 -0.901962 69.6301 14.3348C77.0301 26.1414 72.3246 40.7965 61.4615 47.1057L54.4064 34.8859C58.7281 32.3762 60.6002 26.5461 57.6562 21.8488C53.8572 15.7873 44.8629 16.1191 41.5052 22.4449C39.0209 27.1256 40.9898 32.5133 45.0812 34.8922L38.0211 47.1207C27.7367 41.1412 22.7871 27.5988 29.0324 15.8328V15.8328ZM32.8058 73.1389C32.7974 77.8807 29.1078 82.2986 23.8035 82.4943C16.6468 82.7584 11.8722 75.1404 15.2299 68.8146C17.8259 63.9238 23.7904 62.6195 28.1191 65.0799L35.1925 52.8283C24.309 46.6174 9.28923 49.8957 2.757 62.2027C-5.68284 78.1031 6.31892 97.2521 24.308 96.5883C37.6162 96.0973 46.8812 85.0326 46.9373 73.1389H32.806H32.8058ZM88.2254 52.8822L81.1705 65.1017C85.507 67.6051 87.3896 73.4465 84.441 78.1512C80.6418 84.2127 71.6474 83.8808 68.29 77.5551C65.8013 72.8664 67.7812 67.4685 71.8867 65.0961L64.8265 52.8674C54.5281 58.8406 49.5677 72.3933 55.8172 84.1672C64.2566 100.068 86.8654 100.902 96.4148 85.6652C103.82 73.8508 99.1035 59.1847 88.2254 52.8822V52.8822Z" fill="white"/>
</g>
<defs>
<clipPath id="clip0_39:66">
<rect width="100" height="100" fill="white"/>
</clipPath>
</defs>
</svg>
