<svg id="visual" viewBox="0 0 900 600" width="900" height="600" xmlns="http://www.w3.org/2000/svg" xmlns:xlink="http://www.w3.org/1999/xlink" version="1.1"><rect x="0" y="0" width="900" height="600" fill="#5A7FFF"></rect><defs><linearGradient id="grad1_0" x1="33.3%" y1="0%" x2="100%" y2="100%"><stop offset="20%" stop-color="#6daede" stop-opacity="1"></stop><stop offset="80%" stop-color="#6daede" stop-opacity="1"></stop></linearGradient></defs><defs><linearGradient id="grad1_1" x1="33.3%" y1="0%" x2="100%" y2="100%"><stop offset="20%" stop-color="#6daede" stop-opacity="1"></stop><stop offset="80%" stop-color="#5a7fff" stop-opacity="1"></stop></linearGradient></defs><defs><linearGradient id="grad2_0" x1="0%" y1="0%" x2="66.7%" y2="100%"><stop offset="20%" stop-color="#6daede" stop-opacity="1"></stop><stop offset="80%" stop-color="#6daede" stop-opacity="1"></stop></linearGradient></defs><defs><linearGradient id="grad2_1" x1="0%" y1="0%" x2="66.7%" y2="100%"><stop offset="20%" stop-color="#5a7fff" stop-opacity="1"></stop><stop offset="80%" stop-color="#6daede" stop-opacity="1"></stop></linearGradient></defs><g transform="translate(900, 0)"><path d="M0 459.7C-77.9 444.2 -155.9 428.7 -226.5 392.3C-297.1 355.9 -360.5 298.7 -398.1 229.9C-435.8 161 -447.7 80.5 -459.7 0L0 0Z" fill="#479bf4"></path><path d="M0 229.9C-39 222.1 -77.9 214.3 -113.2 196.2C-148.6 178 -180.2 149.4 -199.1 114.9C-217.9 80.5 -223.9 40.2 -229.9 0L0 0Z" fill="#6daede"></path></g><g transform="translate(0, 600)"><path d="M0 -459.7C92.6 -454.7 185.2 -449.8 229.9 -398.1C274.5 -346.5 271.1 -248.1 301.4 -174C331.7 -99.9 395.7 -49.9 459.7 0L0 0Z" fill="#479bf4"></path><path d="M0 -229.9C46.3 -227.4 92.6 -224.9 114.9 -199.1C137.2 -173.2 135.5 -124.1 150.7 -87C165.8 -49.9 197.8 -25 229.9 0L0 0Z" fill="#6daede"></path></g></svg>