<svg id="visual" viewBox="0 0 900 600" width="900" height="600" xmlns="http://www.w3.org/2000/svg" xmlns:xlink="http://www.w3.org/1999/xlink" version="1.1">
	<path d="M0 413L21.5 404.7C43 396.3 86 379.7 128.8 375.5C171.7 371.3 214.3 379.7 257.2 392.2C300 404.7 343 421.3 385.8 430.2C428.7 439 471.3 440 514.2 431.7C557 423.3 600 405.7 642.8 393.2C685.7 380.7 728.3 373.3 771.2 381.3C814 389.3 857 412.7 878.5 424.3L900 436L900 601L878.5 601C857 601 814 601 771.2 601C728.3 601 685.7 601 642.8 601C600 601 557 601 514.2 601C471.3 601 428.7 601 385.8 601C343 601 300 601 257.2 601C214.3 601 171.7 601 128.8 601C86 601 43 601 21.5 601L0 601Z" fill="#fa7268">
	</path>
	<path d="M0 466L21.5 455C43 444 86 422 128.8 410.7C171.7 399.3 214.3 398.7 257.2 409.5C300 420.3 343 442.7 385.8 444.2C428.7 445.7 471.3 426.3 514.2 417C557 407.7 600 408.3 642.8 410.3C685.7 412.3 728.3 415.7 771.2 418.5C814 421.3 857 423.7 878.5 424.8L900 426L900 601L878.5 601C857 601 814 601 771.2 601C728.3 601 685.7 601 642.8 601C600 601 557 601 514.2 601C471.3 601 428.7 601 385.8 601C343 601 300 601 257.2 601C214.3 601 171.7 601 128.8 601C86 601 43 601 21.5 601L0 601Z" fill="#ef5f67">
	</path>
	<path d="M0 437L21.5 444.2C43 451.3 86 465.7 128.8 477.8C171.7 490 214.3 500 257.2 504.5C300 509 343 508 385.8 504.5C428.7 501 471.3 495 514.2 485.8C557 476.7 600 464.3 642.8 456.8C685.7 449.3 728.3 446.7 771.2 455C814 463.3 857 482.7 878.5 492.3L900 502L900 601L878.5 601C857 601 814 601 771.2 601C728.3 601 685.7 601 642.8 601C600 601 557 601 514.2 601C471.3 601 428.7 601 385.8 601C343 601 300 601 257.2 601C214.3 601 171.7 601 128.8 601C86 601 43 601 21.5 601L0 601Z" fill="#e34c67">
	</path>
	<path d="M0 512L21.5 509.3C43 506.7 86 501.3 128.8 503.7C171.7 506 214.3 516 257.2 523.7C300 531.3 343 536.7 385.8 536.2C428.7 535.7 471.3 529.3 514.2 525.3C557 521.3 600 519.7 642.8 518.2C685.7 516.7 728.3 515.3 771.2 518.3C814 521.3 857 528.7 878.5 532.3L900 536L900 601L878.5 601C857 601 814 601 771.2 601C728.3 601 685.7 601 642.8 601C600 601 557 601 514.2 601C471.3 601 428.7 601 385.8 601C343 601 300 601 257.2 601C214.3 601 171.7 601 128.8 601C86 601 43 601 21.5 601L0 601Z" fill="#d53867">
	</path>
	<path d="M0 537L21.5 537.5C43 538 86 539 128.8 544.5C171.7 550 214.3 560 257.2 558.5C300 557 343 544 385.8 541.7C428.7 539.3 471.3 547.7 514.2 551.2C557 554.7 600 553.3 642.8 549.2C685.7 545 728.3 538 771.2 540.8C814 543.7 857 556.3 878.5 562.7L900 569L900 601L878.5 601C857 601 814 601 771.2 601C728.3 601 685.7 601 642.8 601C600 601 557 601 514.2 601C471.3 601 428.7 601 385.8 601C343 601 300 601 257.2 601C214.3 601 171.7 601 128.8 601C86 601 43 601 21.5 601L0 601Z" fill="#c62368">
	</path>
</svg>
